<svg width="26" height="28" viewBox="0 0 26 28" fill="none" xmlns="http://www.w3.org/2000/svg">
<path d="M21.5762 14.3753V11.7578C21.5762 7.93942 19.0381 4.70307 15.5606 3.64602V2.46094C15.5606 1.10398 14.4566 0 13.0997 0C11.7427 0 10.6387 1.10398 10.6387 2.46094V3.64602C7.16116 4.70307 4.62311 7.93937 4.62311 11.7578V14.3753C4.62311 17.7294 3.34463 20.9098 1.0232 23.3307C0.795697 23.5679 0.731767 23.918 0.86072 24.2203C0.989673 24.5226 1.28663 24.7188 1.6153 24.7188H9.08064C9.4617 26.5886 11.1189 28 13.0997 28C15.0805 28 16.7376 26.5886 17.1187 24.7188H24.5841C24.9127 24.7188 25.2096 24.5226 25.3386 24.2203C25.4675 23.918 25.4036 23.5679 25.1762 23.3307C22.8547 20.9098 21.5762 17.7293 21.5762 14.3753ZM12.2794 2.46094C12.2794 2.00862 12.6474 1.64062 13.0997 1.64062C13.552 1.64062 13.92 2.00862 13.92 2.46094V3.32106C13.65 3.29503 13.3764 3.28125 13.0997 3.28125C12.823 3.28125 12.5494 3.29503 12.2794 3.32106V2.46094ZM13.0997 26.3594C12.0303 26.3594 11.1185 25.6735 10.7798 24.7188H15.4195C15.0809 25.6735 14.1691 26.3594 13.0997 26.3594ZM3.38335 23.0781C5.25153 20.5739 6.26374 17.5433 6.26374 14.3753V11.7578C6.26374 7.98848 9.33034 4.92188 13.0997 4.92188C16.869 4.92188 19.9356 7.98848 19.9356 11.7578V14.3753C19.9356 17.5433 20.9478 20.5739 22.8161 23.0781H3.38335Z" fill="#15D42E"/>
<path d="M23.7636 11.7578C23.7636 12.2108 24.1309 12.5781 24.5839 12.5781C25.0369 12.5781 25.4042 12.2108 25.4042 11.7578C25.4042 8.47108 24.1243 5.38108 21.8003 3.05702C21.48 2.73672 20.9605 2.73666 20.6402 3.05702C20.3198 3.37738 20.3198 3.89675 20.6402 4.21711C22.6544 6.2313 23.7636 8.90929 23.7636 11.7578Z" fill="#15D42E"/>
<path d="M1.61523 12.5781C2.06827 12.5781 2.43555 12.2108 2.43555 11.7578C2.43555 8.90931 3.54483 6.23132 5.55897 4.21713C5.87933 3.89677 5.87933 3.3774 5.55897 3.05704C5.23866 2.73668 4.71924 2.73668 4.39888 3.05704C2.07483 5.3811 0.794922 8.47105 0.794922 11.7578C0.794922 12.2108 1.1622 12.5781 1.61523 12.5781Z" fill="#15D42E"/>
</svg>
