<svg width="33" height="25" viewBox="0 0 33 25" fill="none" xmlns="http://www.w3.org/2000/svg">
<path d="M12.3032 24.4514C6.92924 24.4514 2.6819 23.6012 0.649849 22.1194L0.610299 22.0905L0.574434 22.058C0.0917245 21.6207 -0.0664764 21.047 0.140855 20.4842L0.15977 20.4375C0.41132 19.8679 1.02766 19.4844 1.6956 19.4808C3.07027 19.4593 4.27299 19.3109 5.36443 19.0228C3.62349 18.2897 2.41413 17.0202 1.69461 15.1829C1.45264 14.6099 1.66145 13.9746 2.21908 13.5958C2.35665 13.5022 2.51215 13.4314 2.67674 13.3841C1.70935 12.3729 0.994747 11.2222 0.594577 10.0053L0.582049 9.96744L0.573451 9.92874C0.437605 9.31326 0.741478 8.68043 1.29837 8.40794C1.53199 8.28649 1.78575 8.22354 2.04049 8.2182C1.76585 7.68258 1.56614 7.13271 1.44773 6.57951C1.11905 5.04648 1.39025 3.50966 2.25348 2.01178L2.45319 1.65009C2.61311 1.3607 2.91871 1.1574 3.27097 1.10557C3.62324 1.05396 3.98435 1.1594 4.23664 1.38784L4.60045 1.71772C7.4746 4.44612 10.049 5.7407 14.5 6.62645C14.6988 5.0794 15.4375 3.64135 16.6291 2.50959C18.0473 1.16296 19.941 0.407341 21.9615 0.381538H21.9748C23.449 0.381538 25.2776 1.14361 26.3835 1.68101C27.3322 1.39985 28.4753 0.964545 29.6613 0.504323C30.2162 0.268541 30.9004 0.376422 31.3366 0.77147C31.7643 1.15873 31.883 1.70481 31.656 2.23555C31.5698 2.45287 31.472 2.66618 31.3632 2.87483C31.5256 2.94223 31.6742 3.03365 31.7997 3.14732C32.1792 3.49098 32.3374 4.02883 32.2026 4.51775L32.1881 4.56424C31.7336 5.8904 30.8606 6.97056 29.706 7.64854C29.5132 16.9466 21.7805 24.4514 12.3032 24.4514ZM2.46056 21.1671C4.37543 22.1481 8.02461 22.7415 12.3032 22.7415C16.4166 22.7415 20.2984 21.1424 23.2333 18.2387C26.1922 15.3113 27.8216 11.4237 27.8216 7.2922V7.24571C27.8216 6.87157 28.0491 6.53013 28.4151 6.35441C29.1577 5.99828 29.7591 5.3917 30.1501 4.61606C29.7468 4.67368 29.3368 4.52709 29.0855 4.22146C28.7934 3.86623 28.7902 3.38643 29.0774 3.02809C29.2324 2.83457 29.3729 2.63326 29.4982 2.42506C28.474 2.81455 27.5015 3.16378 26.6572 3.39578C26.3504 3.47986 26.0084 3.44694 25.7281 3.30524C24.225 2.54696 22.825 2.09363 21.9809 2.09141C18.8663 2.13456 16.3338 4.55 16.3338 7.4786C16.3338 7.78134 16.1855 8.06517 15.9273 8.25757C15.6689 8.44976 15.3328 8.52672 15.0046 8.468C9.87242 7.55245 6.83123 6.17957 3.66869 3.30191C3.21545 4.2853 3.09165 5.27581 3.30119 6.25386C3.51368 7.2446 4.07893 8.23733 4.93601 9.12463C5.26175 9.4614 5.30498 9.9432 5.04361 10.3233C4.78322 10.7022 4.28822 10.8792 3.81239 10.7638C3.44047 10.6735 3.09852 10.5549 2.77426 10.4025C3.43482 11.7018 4.57097 12.9034 5.9992 13.7896C6.41313 14.0465 6.58607 14.5254 6.42 14.9542C6.2537 15.3838 5.78917 15.6603 5.28705 15.6265C4.73998 15.5898 4.25531 15.4957 3.8092 15.3371C4.61003 16.8138 5.88964 17.6264 7.86101 17.9369C8.33045 18.011 8.69599 18.3466 8.77066 18.7722C8.84559 19.1977 8.61295 19.6194 8.19215 19.8216C6.51188 20.6282 4.67537 21.061 2.46056 21.1671Z" fill="white"/>
</svg>
