<svg width="23" height="26" viewBox="0 0 23 26" fill="none" xmlns="http://www.w3.org/2000/svg">
<path d="M3.71064 14.9867L4.62547 15.5434L4.97152 14.3365C5.58394 12.215 5.5191 12.3087 5.58044 12.0732C5.55554 11.941 4.91079 10.3471 5.35977 8.41064L5.36862 8.36606C5.98228 4.60094 12.7628 3.57616 15.9114 6.02611C17.2697 7.08303 17.7808 8.66908 17.3891 10.6129C17.1079 12.0088 16.6169 13.0496 15.8443 13.8884C14.7778 15.0466 13.4364 15.1407 12.6418 14.738C12.346 14.5882 11.6905 14.1375 11.9943 13.1927C12.4289 11.8404 13.2141 9.80367 13.3069 8.32666C13.3897 7.01091 12.5358 5.94003 11.182 5.66188C9.6731 5.35179 7.93443 6.10856 7.18263 7.87366C6.64164 9.14331 6.64308 10.4629 7.18716 11.906C7.20487 12.262 6.81497 13.6046 6.50042 14.6877C5.54957 17.9623 4.2471 22.4467 5.5156 24.7302L5.9164 25.4514L6.64843 25.009C8.74056 23.7451 9.96274 20.0685 10.6326 17.7781C12.396 18.9915 14.8947 19.0938 17.3662 17.9723C21.3339 16.1716 23.9806 11.8747 22.6545 7.09068C21.1764 1.75864 15.44 -0.308137 9.66219 0.574893C4.89926 1.30259 1.87007 4.16957 1.06599 7.70322C0.387686 10.6846 1.45053 13.6116 3.71064 14.9867ZM2.61218 8.007C3.33042 4.85001 6.06174 2.61336 9.91848 2.02397C14.5503 1.31617 19.8116 2.72163 21.1241 7.45702C22.3381 11.8362 19.6677 15.2935 16.6727 16.6527C14.8354 17.4864 12.3385 17.7335 10.8405 15.9267L9.86311 14.7479L9.45098 16.1857C8.90669 18.0826 8.02644 21.3029 6.61241 23.0241C6.33471 20.8951 7.36708 17.3395 8.02603 15.0705C8.65513 12.9044 8.90196 12.0036 8.69157 11.4549C8.26606 10.3452 8.25309 9.35067 8.65184 8.41408C9.09855 7.36558 10.0513 6.93344 10.8407 7.09566C11.1258 7.15438 11.7831 7.38318 11.7292 8.24095C11.6493 9.50983 10.8868 11.5068 10.4801 12.7724C10.0529 14.101 10.6044 15.3787 11.8852 16.0275C13.3246 16.7566 15.4855 16.5364 17.0449 14.8434C18.005 13.8008 18.6079 12.5425 18.9423 10.8832C19.2008 9.60032 19.1395 8.42077 18.7601 7.37686C18.4072 6.40584 17.7901 5.57254 16.9259 4.89994C12.8478 1.72689 4.63967 3.18419 3.80986 8.12331C3.51446 9.41457 3.56283 10.7586 3.95335 12.1214C3.89056 12.377 3.80142 12.7043 3.70693 13.0408C2.60704 11.8389 2.17021 9.9502 2.61218 8.007Z" fill="white"/>
</svg>
