<svg width="17" height="26" viewBox="0 0 17 26" fill="none" xmlns="http://www.w3.org/2000/svg">
<path d="M10.6797 25.4514H6.13742C5.37871 25.4514 4.76152 24.9059 4.76152 24.2352V15.1784H2.11143C1.35272 15.1784 0.735535 14.6326 0.735535 13.9621V10.0813C0.735535 9.41056 1.35272 8.86498 2.11143 8.86498H4.76152V6.92159C4.76152 4.99465 5.44601 3.35523 6.74075 2.18086C8.04134 1.00112 9.85892 0.377686 11.997 0.377686L15.4612 0.382659C16.2186 0.383807 16.8347 0.929388 16.8347 1.59893V5.20221C16.8347 5.8729 16.2177 6.41848 15.4593 6.41848L13.1268 6.41924C12.4155 6.41924 12.2344 6.54531 12.1957 6.58395C12.1318 6.64804 12.0559 6.82919 12.0559 7.32944V8.86479H15.284C15.527 8.86479 15.7624 8.91778 15.9648 9.01764C16.4013 9.23323 16.6726 9.64088 16.6726 10.0814L16.6709 13.9623C16.6709 14.6326 16.0537 15.1782 15.295 15.1782H12.0559V24.2352C12.0559 24.9059 11.4385 25.4514 10.6797 25.4514ZM6.42437 23.9815H10.3928V14.5203C10.3928 14.0725 10.805 13.7083 11.3114 13.7083H15.008L15.0096 10.3349H11.3112C10.8048 10.3349 10.3928 9.97068 10.3928 9.52285V7.32944C10.3928 6.75516 10.4588 6.10207 10.9492 5.6112C11.5417 5.0178 12.4755 4.94931 13.1264 4.94931L15.1719 4.94855V1.85221L11.9957 1.84762C8.55963 1.84762 6.42437 3.79196 6.42437 6.92159V9.52285C6.42437 9.97049 6.01234 10.3349 5.50595 10.3349H2.39839V13.7083H5.50595C6.01234 13.7083 6.42437 14.0725 6.42437 14.5203V23.9815ZM15.458 1.85259H15.4582H15.458Z" fill="white"/>
</svg>
