<svg width="28" height="26" viewBox="0 0 28 26" fill="none" xmlns="http://www.w3.org/2000/svg">
<path d="M20.3279 0.4021H7.93851C3.90628 0.4021 0.625916 3.44382 0.625916 7.18271V18.6709C0.625916 22.4096 3.90628 25.4514 7.93851 25.4514H20.3281C24.3601 25.4514 27.6405 22.4096 27.6405 18.6709V7.18271C27.6405 3.44382 24.3601 0.4021 20.3279 0.4021V0.4021ZM26.0568 18.6709C26.0568 21.5999 23.4868 23.9829 20.3279 23.9829H7.93851C4.77954 23.9829 2.20962 21.5999 2.20962 18.6709V7.18271C2.20962 4.25355 4.77954 1.87059 7.93851 1.87059H20.3281C23.4868 1.87059 26.0568 4.25355 26.0568 7.18271V18.6709Z" fill="white"/>
<path d="M14.133 6.07812C10.06 6.07812 6.74646 9.15061 6.74646 12.9273C6.74646 16.7041 10.06 19.7766 14.133 19.7766C18.2061 19.7766 21.5196 16.7041 21.5196 12.9273C21.5196 9.15061 18.2061 6.07812 14.133 6.07812ZM14.133 18.3081C10.9335 18.3081 8.33017 15.8943 8.33017 12.9273C8.33017 9.96054 10.9335 7.54662 14.133 7.54662C17.3328 7.54662 19.9359 9.96054 19.9359 12.9273C19.9359 15.8943 17.3328 18.3081 14.133 18.3081Z" fill="white"/>
<path d="M21.6964 3.64551C20.4927 3.64551 19.5137 4.55347 19.5137 5.66937C19.5137 6.78545 20.4927 7.69342 21.6964 7.69342C22.9 7.69342 23.8792 6.78545 23.8792 5.66937C23.8792 4.55328 22.9 3.64551 21.6964 3.64551ZM21.6964 6.22474C21.3662 6.22474 21.0974 5.97553 21.0974 5.66937C21.0974 5.36302 21.3662 5.114 21.6964 5.114C22.0268 5.114 22.2955 5.36302 22.2955 5.66937C22.2955 5.97553 22.0268 6.22474 21.6964 6.22474Z" fill="white"/>
</svg>
