<svg width="37" height="37" viewBox="0 0 37 37" fill="none" xmlns="http://www.w3.org/2000/svg">
<path d="M18.5 9.97251L18.0634 9.19065C17.8434 8.79662 17.5823 8.37939 17.2762 7.96454L17.2762 7.96453C16.0935 6.36144 14.0239 4.5 10.7656 4.5C8.42912 4.5 6.3062 5.42124 4.77606 7.08866L18.5 9.97251ZM18.5 9.97251L18.9366 9.19066M18.5 9.97251L18.9366 9.19066M18.9366 9.19066C19.1566 8.79666 19.4178 8.3794 19.7238 7.9645C20.9065 6.36142 22.9761 4.5 26.2344 4.5C28.5709 4.5 30.6938 5.42119 32.2239 7.0886C33.6869 8.68304 34.5 10.8264 34.5 13.1315C34.5 15.6128 33.4983 17.9532 31.25 20.5213L31.6262 20.8506L31.25 20.5213C29.2263 22.833 26.3042 25.2264 22.866 28.0402L22.866 28.0402L22.8534 28.0506C21.5804 29.0925 20.2615 30.172 18.8573 31.3518L18.857 31.3521M18.9366 9.19066L18.857 31.3521M5.3738 20.8506L5.75 20.5213C7.77373 22.8329 10.6958 25.2263 14.1342 28.0403L13.8175 28.4273L14.1342 28.0403L14.1355 28.0414C15.4118 29.086 16.7344 30.1685 18.1427 31.3518L18.143 31.3521L18.185 31.3875L5.3738 20.8506ZM5.3738 20.8506L5.75 20.5213C3.50172 17.9533 2.5 15.6128 2.5 13.1315C2.5 10.8264 3.3131 8.68306 4.77604 7.08868L5.3738 20.8506ZM18.857 31.3521L18.8151 31.3874L18.857 31.3521ZM16.5032 8.4445C15.4847 7.06388 13.6399 5.35706 10.7656 5.35706C8.72088 5.35706 6.84301 6.16596 5.48991 7.64037L5.48989 7.64039C4.15754 9.09238 3.43359 11.046 3.43359 13.1315C3.43359 15.6882 4.62796 17.9008 6.61373 20.134C8.58618 22.3522 11.3958 24.6516 14.7251 27.3764L14.7547 27.4006L15.0714 27.0137L14.7547 27.4006C15.8559 28.3019 16.9871 29.2277 18.1796 30.2232L18.5 30.4907L18.8205 30.2232C20.0129 29.2276 21.1441 28.3018 22.2451 27.4007L21.9285 27.0138L22.2451 27.4007L22.2746 27.3766C25.6041 24.6517 28.4138 22.3523 30.3862 20.134C32.372 17.9008 33.5664 15.6882 33.5664 13.1315C33.5664 11.046 32.8425 9.09237 31.51 7.64038C30.157 6.16595 28.2791 5.35706 26.2344 5.35706C23.3601 5.35706 21.5153 7.06388 20.4969 8.44442C19.5839 9.68184 19.1095 10.9246 18.9457 11.407L18.9457 11.4071C18.8883 11.5764 18.7151 11.7086 18.5 11.7086C18.2849 11.7086 18.1117 11.5764 18.0543 11.4071L18.0543 11.407C17.8905 10.9246 17.4161 9.68187 16.5032 8.4445ZM16.5032 8.4445L16.1008 8.74132L16.5032 8.4445ZM18.5 31.5C18.3842 31.5 18.2726 31.4611 18.1852 31.3876H18.8148C18.7273 31.4611 18.6157 31.5 18.5 31.5Z" fill="white" stroke="#15D42E"/>
</svg>
