<svg width="37" height="37" viewBox="0 0 37 37" fill="none" xmlns="http://www.w3.org/2000/svg">
<path d="M3 14.7333C3 13.5919 3.92528 12.6666 5.06667 12.6666V12.6666C6.20805 12.6666 7.13333 13.5919 7.13333 14.7333V24.7037C7.13333 25.0361 6.86387 25.3055 6.53148 25.3055H3.60185C3.26946 25.3055 3 25.0361 3 24.7037V14.7333Z" stroke="#15D42E" stroke-width="1.6"/>
<path d="M27.8 14.7333C27.8 13.5919 28.7253 12.6666 29.8667 12.6666V12.6666C31.0081 12.6666 31.9334 13.5919 31.9334 14.7333V24.7037C31.9334 25.0361 31.6639 25.3055 31.3315 25.3055H28.4019C28.0695 25.3055 27.8 25.0361 27.8 24.7037V14.7333Z" stroke="#15D42E" stroke-width="1.6"/>
<path d="M19.5333 7.92775C19.5333 6.78636 20.4586 5.86108 21.6 5.86108V5.86108C22.7414 5.86108 23.6667 6.78636 23.6667 7.92775V24.3796C23.6667 24.891 23.2521 25.3055 22.7407 25.3055H20.4593C19.9479 25.3055 19.5333 24.891 19.5333 24.3796V7.92775Z" stroke="#15D42E" stroke-width="1.6"/>
<path d="M11.2667 3.06667C11.2667 1.92528 12.192 1 13.3334 1V1C14.4748 1 15.4001 1.92528 15.4001 3.06667V24.1481C15.4001 24.7874 14.8819 25.3056 14.2426 25.3056H12.4241C11.7849 25.3056 11.2667 24.7874 11.2667 24.1481V3.06667Z" stroke="#15D42E" stroke-width="1.6"/>
<ellipse cx="22.6333" cy="25.3055" rx="11.3667" ry="10.6944" fill="#FCFCFC"/>
<ellipse cx="22.7232" cy="25.3901" rx="9.38986" ry="8.83454" fill="#15D42E"/>
<rect x="16.4333" y="24.3334" width="12.4" height="1.94444" rx="0.972222" fill="white"/>
<rect x="21.6001" y="31.1389" width="11.6667" height="2.06667" rx="1.03333" transform="rotate(-90 21.6001 31.1389)" fill="white"/>
</svg>
