<svg width="37" height="37" viewBox="0 0 37 37" fill="none" xmlns="http://www.w3.org/2000/svg">
<path d="M26.5762 18.3753V15.7578C26.5762 11.9394 24.0381 8.70307 20.5606 7.64602V6.46094C20.5606 5.10398 19.4566 4 18.0997 4C16.7427 4 15.6387 5.10398 15.6387 6.46094V7.64602C12.1612 8.70307 9.62311 11.9394 9.62311 15.7578V18.3753C9.62311 21.7294 8.34463 24.9098 6.0232 27.3307C5.7957 27.5679 5.73177 27.918 5.86072 28.2203C5.98967 28.5226 6.28663 28.7188 6.6153 28.7188H14.0806C14.4617 30.5886 16.1189 32 18.0997 32C20.0805 32 21.7376 30.5886 22.1187 28.7188H29.5841C29.9127 28.7188 30.2096 28.5226 30.3386 28.2203C30.4675 27.918 30.4036 27.5679 30.1762 27.3307C27.8547 24.9098 26.5762 21.7293 26.5762 18.3753ZM17.2794 6.46094C17.2794 6.00862 17.6474 5.64062 18.0997 5.64062C18.552 5.64062 18.92 6.00862 18.92 6.46094V7.32106C18.65 7.29503 18.3764 7.28125 18.0997 7.28125C17.823 7.28125 17.5494 7.29503 17.2794 7.32106V6.46094ZM18.0997 30.3594C17.0303 30.3594 16.1185 29.6735 15.7798 28.7188H20.4195C20.0809 29.6735 19.1691 30.3594 18.0997 30.3594ZM8.38335 27.0781C10.2515 24.5739 11.2637 21.5433 11.2637 18.3753V15.7578C11.2637 11.9885 14.3303 8.92188 18.0997 8.92188C21.869 8.92188 24.9356 11.9885 24.9356 15.7578V18.3753C24.9356 21.5433 25.9478 24.5739 27.8161 27.0781H8.38335Z" fill="#15D42E"/>
<path d="M28.7636 15.7578C28.7636 16.2108 29.1309 16.5781 29.5839 16.5781C30.0369 16.5781 30.4042 16.2108 30.4042 15.7578C30.4042 12.4711 29.1243 9.38108 26.8003 7.05702C26.48 6.73672 25.9605 6.73666 25.6402 7.05702C25.3198 7.37738 25.3198 7.89675 25.6402 8.21711C27.6544 10.2313 28.7636 12.9093 28.7636 15.7578Z" fill="#15D42E"/>
<path d="M6.61523 16.5781C7.06827 16.5781 7.43555 16.2108 7.43555 15.7578C7.43555 12.9093 8.54483 10.2313 10.559 8.21713C10.8793 7.89677 10.8793 7.3774 10.559 7.05704C10.2387 6.73668 9.71924 6.73668 9.39888 7.05704C7.07483 9.3811 5.79492 12.471 5.79492 15.7578C5.79492 16.2108 6.1622 16.5781 6.61523 16.5781Z" fill="#15D42E"/>
</svg>
