<svg width="14" height="14" viewBox="0 0 14 14" fill="none" xmlns="http://www.w3.org/2000/svg">
<path d="M10.8714 9.64717L10.3293 9.34199C10.164 9.24912 9.97494 9.2001 9.78235 9.2H8.96645C8.79942 9.19971 8.63312 9.21992 8.47161 9.25996L6.01331 9.87998C5.74453 9.94971 5.52866 10.1378 5.43449 10.3844L3.2722 9.28525C3.09686 9.1915 2.89159 9.15967 2.69349 9.19541C2.61876 9.20781 2.54631 9.23018 2.47823 9.26182C2.32451 9.33096 2.19698 9.44268 2.11259 9.58184C2.03879 9.70303 2.00002 9.84023 2.00002 9.97979C1.99774 10.2647 2.15842 10.5288 2.42076 10.6716L6.29612 12.8502C6.4645 12.9481 6.65844 13 6.85644 13H9.85562C9.98959 13.0001 10.1223 12.9763 10.2468 12.93L10.8714 12.6982V13H13V9H10.8714V9.64717ZM10.0904 12.558C10.0159 12.5856 9.93638 12.5999 9.85624 12.6H6.85644C6.7365 12.5999 6.61895 12.5682 6.5173 12.5084L2.63663 10.3272C2.50474 10.2557 2.42398 10.123 2.42502 9.97998C2.42533 9.90986 2.44497 9.84092 2.48208 9.77998C2.52449 9.71094 2.5883 9.65557 2.6649 9.62139C2.69868 9.60596 2.73444 9.59502 2.77133 9.58896C2.79825 9.58428 2.82559 9.58184 2.85292 9.58184C2.92609 9.58164 2.99802 9.59961 3.06152 9.63379L5.40622 10.8242C5.40892 10.8364 5.40892 10.8484 5.41235 10.8606C5.51317 11.2098 5.85023 11.4522 6.23532 11.4526C6.3538 11.4425 6.47115 11.4228 6.5861 11.3938L8.79765 10.8378L8.6879 10.4514L6.48352 11.005C6.38644 11.026 6.2612 11.05 6.23532 11.0521C6.04304 11.0523 5.87445 10.9316 5.82383 10.7574C5.81697 10.7332 5.81292 10.7084 5.81147 10.6834C5.81147 10.6834 5.8098 10.635 5.81147 10.618C5.82768 10.4507 5.9524 10.3103 6.12462 10.2652L8.58188 9.64756C8.70733 9.61602 8.83663 9.6 8.96645 9.6H9.78235C9.89792 9.6 10.0113 9.62949 10.1104 9.68525L10.8714 10.1134V12.268L10.0904 12.558ZM11.2971 9.4H12.5743V12.6H11.2971V9.4Z" fill="#15D42E" stroke="#15D42E" stroke-width="0.3"/>
<path d="M9.24883 2.64706L8.17598 1.54276C7.83916 1.19403 7.38086 0.9986 6.90322 1.00001H4.38877C4.23359 1.00021 4.08057 1.0375 3.9416 1.10868L3.49336 1.33949C3.40352 1.38604 3.30371 1.40825 3.20322 1.40413L3 1.39679V1.00001H1V5.52941H3V4.91177H3.34004L3.46104 4.9941C3.79961 5.22552 4.19385 5.3562 4.6 5.37148V8H13V2.64706H9.24883ZM2.6 5.11765H1.4V1.41177H2.6V5.11765ZM3.68242 4.6515L3.45996 4.5H3V1.80876L3.18857 1.81569C3.35605 1.82183 3.52227 1.78473 3.67217 1.70783L4.12002 1.47701C4.20342 1.43409 4.29551 1.41177 4.38877 1.41177H6.90322C7.27471 1.41067 7.63125 1.56266 7.89316 1.83379L8.6832 2.64706H7.03281L6.54736 2.14744L6.26465 2.43847L7.67744 3.89291C7.83437 4.05376 7.83486 4.31513 7.67861 4.47678C7.52227 4.63833 7.26836 4.63883 7.11143 4.47799L5.93145 3.2633L5.79141 3.38685C5.40479 3.72483 4.83965 3.73347 4.44336 3.40736L4.32744 3.31065L4.07539 3.63053L4.19258 3.72835C4.31514 3.82918 4.45273 3.909 4.6 3.96469V4.95952C4.27266 4.94454 3.95537 4.83808 3.68242 4.6515ZM6.52744 4.45879L6.8292 4.76952C7.14248 5.08719 7.64541 5.08769 7.95918 4.77053C7.66563 5.23848 7.78145 5.86126 8.22217 6.18446C8.66289 6.50766 9.27256 6.41688 9.60625 5.97847C9.93994 5.53997 9.87969 4.90885 9.46934 4.54574C9.05908 4.18264 8.44385 4.21591 8.07285 4.62124C8.20947 4.40038 8.23389 4.12513 8.13838 3.88236H10.8166C10.9026 4.40038 11.2968 4.80611 11.8 4.89468V5.75239C11.2968 5.84095 10.9026 6.24668 10.8166 6.76471H6.7834C6.69736 6.24668 6.30322 5.84095 5.8 5.75239V4.89468C6.08584 4.84512 6.34434 4.6902 6.52744 4.45879ZM8.2 5.32353C8.2 4.98244 8.46865 4.70589 8.8 4.70589C9.13135 4.70589 9.4 4.98244 9.4 5.32353C9.4 5.66462 9.13135 5.94118 8.8 5.94118C8.46865 5.94118 8.2 5.66462 8.2 5.32353ZM12.6 7.58824H5V4.05094C5.31709 4.07547 5.6332 3.99223 5.9 3.8142L6.24121 4.16545C6.09111 4.37535 5.85322 4.4995 5.6 4.5H5.4V6.14706H5.6C6.0418 6.14706 6.4 6.5158 6.4 6.97059V7.17647H11.2V6.97059C11.2 6.5158 11.5582 6.14706 12 6.14706H12.2V4.5H12C11.5582 4.5 11.2 4.13127 11.2 3.67648V3.47059H7.83281L7.43281 3.05883H12.6V7.58824Z" fill="#15D42E" stroke="#15D42E" stroke-width="0.3"/>
</svg>
