<svg width="33" height="28" viewBox="0 0 33 28" fill="none" xmlns="http://www.w3.org/2000/svg">
<path d="M16.5 5.97251L16.0634 5.19065C15.8434 4.79662 15.5823 4.37939 15.2762 3.96454L15.2762 3.96453C14.0935 2.36144 12.0239 0.5 8.76562 0.5C6.42912 0.5 4.3062 1.42124 2.77606 3.08866L16.5 5.97251ZM16.5 5.97251L16.9366 5.19066M16.5 5.97251L16.9366 5.19066M16.9366 5.19066C17.1566 4.79666 17.4178 4.3794 17.7238 3.9645C18.9065 2.36142 20.9761 0.5 24.2344 0.5C26.5709 0.5 28.6938 1.42119 30.2239 3.0886C31.6869 4.68304 32.5 6.82639 32.5 9.13147C32.5 11.6128 31.4983 13.9532 29.25 16.5213L29.6262 16.8506L29.25 16.5213C27.2263 18.833 24.3042 21.2264 20.866 24.0402L20.866 24.0402L20.8534 24.0506C19.5804 25.0925 18.2615 26.172 16.8573 27.3518L16.857 27.3521M16.9366 5.19066L16.857 27.3521M3.3738 16.8506L3.75 16.5213C5.77373 18.8329 8.69575 21.2263 12.1342 24.0403L11.8175 24.4273L12.1342 24.0403L12.1355 24.0414C13.4118 25.086 14.7344 26.1685 16.1427 27.3518L16.143 27.3521L16.185 27.3875L3.3738 16.8506ZM3.3738 16.8506L3.75 16.5213C1.50172 13.9533 0.5 11.6128 0.5 9.13147C0.5 6.8264 1.3131 4.68306 2.77604 3.08868L3.3738 16.8506ZM16.857 27.3521L16.8151 27.3874L16.857 27.3521ZM14.5032 4.4445C13.4847 3.06388 11.6399 1.35706 8.76562 1.35706C6.72088 1.35706 4.84301 2.16596 3.48991 3.64037L3.48989 3.64039C2.15754 5.09238 1.43359 7.04597 1.43359 9.13147C1.43359 11.6882 2.62796 13.9008 4.61373 16.134C6.58618 18.3522 9.39578 20.6516 12.7251 23.3764L12.7547 23.4006L13.0714 23.0137L12.7547 23.4006C13.8559 24.3019 14.9871 25.2277 16.1796 26.2232L16.5 26.4907L16.8205 26.2232C18.0129 25.2276 19.1441 24.3018 20.2451 23.4007L19.9285 23.0138L20.2451 23.4007L20.2746 23.3766C23.6041 20.6517 26.4138 18.3523 28.3862 16.134C30.372 13.9008 31.5664 11.6882 31.5664 9.13147C31.5664 7.04597 30.8425 5.09237 29.51 3.64038C28.157 2.16595 26.2791 1.35706 24.2344 1.35706C21.3601 1.35706 19.5153 3.06388 18.4969 4.44442C17.5839 5.68184 17.1095 6.92455 16.9457 7.40705L16.9457 7.40714C16.8883 7.5764 16.7151 7.70864 16.5 7.70864C16.2849 7.70864 16.1117 7.5764 16.0543 7.40714L16.0543 7.40705C15.8905 6.92456 15.4161 5.68187 14.5032 4.4445ZM14.5032 4.4445L14.1008 4.74132L14.5032 4.4445ZM16.5 27.5C16.3842 27.5 16.2726 27.4611 16.1852 27.3876H16.8148C16.7273 27.4611 16.6157 27.5 16.5 27.5Z" fill="white" stroke="#15D42E"/>
</svg>
